HIERARCHY
ROOT root
{
	OFFSET	0	13.1	24.9
	CHANNELS 6  Xposition Yposition Zposition Xrotation Yrotation Zrotation
	JOINT spine_1
	{
		OFFSET	0	9.99999	0
		CHANNELS 3  Xrotation Yrotation Zrotation
		JOINT spine_2
		{
			OFFSET	0	112	-10
			CHANNELS 3  Xrotation Yrotation Zrotation
			JOINT spine_3
			{
				OFFSET	0	206.5	19.3
				CHANNELS 3  Xrotation Yrotation Zrotation
				JOINT spine_4
				{
					OFFSET	0	110.4	14.6
					CHANNELS 3  Xrotation Yrotation Zrotation
					JOINT neck_1
					{
						OFFSET	0	71.8	-50.3
						CHANNELS 3  Xrotation Yrotation Zrotation
						JOINT neck_2
						{
							OFFSET	0	86.2	-25.8
							CHANNELS 3  Xrotation Yrotation Zrotation
							JOINT head_ee
							{
								OFFSET	0	179.8	-8.7
								CHANNELS 3  Xrotation Yrotation Zrotation
								End Site
								{
									OFFSET	1	0	0
								}
							}
						}
					}
					JOINT left_clavicle
					{
						OFFSET	-43.2	22.4	-70.8
						CHANNELS 3  Xrotation Yrotation Zrotation
						JOINT left_shoulder
						{
							OFFSET	-93.9	-5.79999	48.7
							CHANNELS 3  Xrotation Yrotation Zrotation
							JOINT left_elbow
							{
								OFFSET	-291.4	-30.8	15.2
								CHANNELS 3  Xrotation Yrotation Zrotation
								JOINT left_lowarm_twist
								{
									OFFSET	-110.7	-3.89999	13.6
									CHANNELS 3  Xrotation Yrotation Zrotation
									JOINT left_hand
									{
										OFFSET	-110.7	-3.89999	13.6
										CHANNELS 3  Xrotation Yrotation Zrotation
										JOINT left_ee
										{
											OFFSET	-80.8	-5.10001	12.1
											CHANNELS 3  Xrotation Yrotation Zrotation
											End Site
											{
												OFFSET	1	0	0
											}
										}
									}
								}
							}
						}
					}
					JOINT right_clavicle
					{
						OFFSET	43.2	22.4	-70.8
						CHANNELS 3  Xrotation Yrotation Zrotation
						JOINT right_shoulder
						{
							OFFSET	93.9	-5.79999	48.7
							CHANNELS 3  Xrotation Yrotation Zrotation
							JOINT right_elbow
							{
								OFFSET	291.4	-30.8	15.2
								CHANNELS 3  Xrotation Yrotation Zrotation
								JOINT right_lowarm_twist
								{
									OFFSET	110.7	-3.89999	13.6
									CHANNELS 3  Xrotation Yrotation Zrotation
									JOINT right_hand
									{
										OFFSET	110.7	-3.89999	13.6
										CHANNELS 3  Xrotation Yrotation Zrotation
										JOINT right_ee
										{
											OFFSET	80.8	-5.10001	12.1
											CHANNELS 3  Xrotation Yrotation Zrotation
											End Site
											{
												OFFSET	1	0	0
											}
										}
									}
								}
							}
						}
					}
				}
			}
		}
	}
	JOINT left_hip
	{
		OFFSET	-82.8	-127.5	0.300001
		CHANNELS 3  Xrotation Yrotation Zrotation
		JOINT left_knee
		{
			OFFSET	-28.2	-396.7	2.2
			CHANNELS 3  Xrotation Yrotation Zrotation
			JOINT left_ankle
			{
				OFFSET	-11.7	-411.3	35.4
				CHANNELS 3  Xrotation Yrotation Zrotation
				JOINT left_toes
				{
					OFFSET	0	-60	-88.6
					CHANNELS 3  Xrotation Yrotation Zrotation
					JOINT left_foot_ee
					{
						OFFSET	-22.5	-16.5	-42.2
						CHANNELS 3  Xrotation Yrotation Zrotation
						End Site
						{
							OFFSET	1	0	0
						}
					}
				}
			}
		}
	}
	JOINT right_hip
	{
		OFFSET	82.8	-127.5	0.300001
		CHANNELS 3  Xrotation Yrotation Zrotation
		JOINT right_knee
		{
			OFFSET	28.2	-396.7	2.2
			CHANNELS 3  Xrotation Yrotation Zrotation
			JOINT right_ankle
			{
				OFFSET	11.7	-411.3	35.4
				CHANNELS 3  Xrotation Yrotation Zrotation
				JOINT right_toes
				{
					OFFSET	0	-60	-88.6
					CHANNELS 3  Xrotation Yrotation Zrotation
					JOINT right_foot_ee
					{
						OFFSET	22.5	-16.5	-42.2
						CHANNELS 3  Xrotation Yrotation Zrotation
						End Site
						{
							OFFSET	1	0	0
						}
					}
				}
			}
		}
	}
}
MOTION
Frames: 5
Frame Time: 0.02
1827.35 686.031 -1571.24 -10.8274 65.9417 8.93802 1.21652 0.828874 3.92706 1.22492 0.577507 3.97175 1.26688 -0.181375 4.00936 1.24474 0.45359 3.98778 -4.28518 12.0231 -5.4487 -3.92761 26.1433 -3.69672 -0.0 0.0 -0.0 0.356309 24.7802 3.33092 -42.0295 -11.0014 60.7139 0.709844 -19.3735 0.121169 -74.6672 -7.14235 5.3197 1.12767 -5.03805 5.4739 -0.0 0.0 -0.0 13.0182 23.5735 -25.9825 15.3459 29.7738 -58.6133 2.13198 46.5577 -0.91733 54.4014 1.30162 6.56818 2.257 8.01614 -11.919 0.0 0.0 0.0 32.0773 6.32676 -13.7366 -0.036616 0.00150577 0.00541731 -18.0462 -0.979001 2.75001 -16.7301 0.0 0.0 -0.0 0.0 -0.0 -11.7386 12.3577 6.57107 -15.2714 -0.321981 -2.31453 32.7363 6.43238 4.27028 -7.1614 0.0 0.0 0.0 0.0 0.0 
1812.7 683.384 -1565.81 -11.3164 66.0326 9.55079 1.21001 0.78493 3.8289 1.218 0.539884 3.871 1.2563 -0.20012 3.90329 1.23529 0.418367 3.88599 -2.68221 11.8129 -4.93716 -2.23888 25.2781 -3.57415 -0.0 0.0 -0.0 0.428026 24.4598 3.3957 -41.7672 -11.5397 60.7833 0.71385 -19.4746 0.122501 -74.9901 -7.18361 5.3191 1.25507 -5.65654 6.07734 -0.0 0.0 -0.0 13.3486 23.2046 -26.7879 14.478 28.6109 -58.4044 2.14715 46.7603 -0.928359 54.013 1.27085 6.52907 2.35379 9.57629 -11.9034 0.0 0.0 0.0 32.4506 5.77947 -13.6729 -3.10946 0.11548 0.463172 -17.4306 0.276402 2.64603 -16.2715 0.0 0.0 -0.0 0.0 -0.0 -11.4616 12.4836 6.38632 -17.1234 -0.318792 -2.59864 32.6511 4.88076 4.23832 -6.77202 0.0 0.0 0.0 0.0 0.0 
1790.66 680.799 -1557.32 -10.7792 65.5907 9.20659 1.19721 0.735091 3.76965 1.20498 0.493907 3.8087 1.23957 -0.234727 3.83338 1.21926 0.373177 3.8224 -1.63942 11.6904 -4.54894 -1.15341 24.6791 -3.412 -0.0 0.0 -0.0 0.497011 24.0437 3.4491 -41.5265 -11.9631 60.7934 0.718422 -19.5899 0.124029 -75.2164 -7.21251 5.31853 1.34346 -6.08997 6.49444 -0.0 0.0 -0.0 13.476 22.9612 -27.1094 13.8558 27.7115 -58.1987 2.15797 46.904 -0.936253 53.741 1.24946 6.50156 2.42312 10.6685 -11.896 0.0 0.0 0.0 32.6859 5.41011 -13.6334 -5.27929 0.181081 0.789694 -17.0775 1.21863 2.58592 -15.9666 0.0 0.0 -0.0 0.0 -0.0 -11.2636 12.58 6.27427 -18.4655 -0.310744 -2.8044 32.5891 3.79474 4.2177 -6.49923 0.0 0.0 0.0 0.0 0.0 
1772.35 682.745 -1550.89 -11.5491 65.1422 9.96715 1.14921 0.706043 3.82999 1.15726 0.461087 3.86708 1.19024 -0.281427 3.88426 1.16935 0.335078 3.88001 -0.915429 11.6254 -4.25904 -0.40459 24.2736 -3.26471 -0.0 0.0 -0.0 0.799004 23.5697 3.81691 -40.8706 -12.4932 60.8575 0.73283 -19.952 0.128903 -75.3784 -7.23321 5.31806 1.40082 -6.41503 6.74668 -0.0 0.0 -0.0 13.5195 22.8011 -27.2263 12.727 26.8956 -58.2167 2.16367 46.9793 -0.940414 53.5505 1.23455 6.48223 2.47636 11.4232 -11.9237 0.0 0.0 0.0 32.9607 5.17192 -13.9963 -7.20693 0.228946 1.08163 -16.8627 1.96295 2.54889 -15.7531 0.0 0.0 -0.0 0.0 -0.0 -11.1146 12.5334 6.60222 -19.4236 -0.302051 -2.95116 32.4498 2.91061 4.19303 -6.32471 0.0 0.0 0.0 0.0 0.0 
1747.07 686.867 -1549.34 -10.9914 64.7361 10.7306 1.06917 0.818543 3.82381 1.07712 0.573753 3.86805 1.11805 -0.175665 3.90637 1.09703 0.443002 3.88517 -1.37094 11.2359 -4.00222 -0.931421 23.4075 -2.93045 -0.0 0.0 -0.0 1.03369 23.3011 4.11643 -40.8885 -13.3418 60.31 0.864562 -23.1842 0.177348 -75.1737 -7.20706 5.31865 1.21606 -6.1814 5.59163 -0.0 0.0 -0.0 13.3621 23.0697 -26.8326 10.594 25.8892 -59.2422 2.16903 47.0499 -0.944335 53.0124 1.19281 6.42738 3.04039 13.8887 -14.6798 0.0 0.0 0.0 33.76 4.94215 -14.4717 -14.2149 0.319686 2.15244 -9.14324 3.72299 1.3666 -15.0256 0.0 0.0 -0.0 0.0 -0.0 -10.9474 13.7521 7.61712 -20.0503 -0.295038 -3.04705 31.849 -0.727686 4.0993 -5.57679 0.0 0.0 0.0 0.0 0.0 
